<?xml version="1.0" encoding="UTF-8" standalone="no"?>
<svg
   id="artwork"
   viewBox="0 0 5000 5000.0001"
   version="1.1"
   sodipodi:docname="logo_cuborosa.svg"
   inkscape:version="1.2.1 (9c6d41e, 2022-07-14)"
   inkscape:export-filename="logo_cuborosa.png"
   inkscape:export-xdpi="24.576"
   inkscape:export-ydpi="24.576"
   width="5000"
   height="5000"
   xmlns:inkscape="http://www.inkscape.org/namespaces/inkscape"
   xmlns:sodipodi="http://sodipodi.sourceforge.net/DTD/sodipodi-0.dtd"
   xmlns="http://www.w3.org/2000/svg"
   xmlns:svg="http://www.w3.org/2000/svg"
   xmlns:rdf="http://www.w3.org/1999/02/22-rdf-syntax-ns#"
   xmlns:cc="http://creativecommons.org/ns#"
   xmlns:dc="http://purl.org/dc/elements/1.1/">
  <sodipodi:namedview
     id="namedview120"
     pagecolor="#ffffff"
     bordercolor="#000000"
     borderopacity="0.25"
     inkscape:showpageshadow="2"
     inkscape:pageopacity="0.0"
     inkscape:pagecheckerboard="false"
     inkscape:deskcolor="#d1d1d1"
     showgrid="true"
     inkscape:zoom="0.1698"
     inkscape:cx="2500"
     inkscape:cy="2500"
     inkscape:window-width="1920"
     inkscape:window-height="1027"
     inkscape:window-x="0"
     inkscape:window-y="25"
     inkscape:window-maximized="0"
     inkscape:current-layer="artwork"
     showguides="true">
    <inkscape:grid
       type="xygrid"
       id="grid1573"
       originx="0"
       originy="0"
       spacingx="10"
       spacingy="10" />
    <sodipodi:guide
       position="0,5000"
       orientation="0,5000"
       id="guide303"
       inkscape:locked="false" />
    <sodipodi:guide
       position="5000,5000"
       orientation="5000,0"
       id="guide305"
       inkscape:locked="false" />
    <sodipodi:guide
       position="5000,0"
       orientation="0,-5000"
       id="guide307"
       inkscape:locked="false" />
    <sodipodi:guide
       position="0,0"
       orientation="-5000,0"
       id="guide309"
       inkscape:locked="false" />
    <sodipodi:guide
       position="500,4600"
       orientation="0,1"
       id="guide4431"
       inkscape:locked="false"
       inkscape:label=""
       inkscape:color="rgb(0,134,229)" />
    <sodipodi:guide
       position="800,500"
       orientation="0,1"
       id="guide5885"
       inkscape:locked="false"
       inkscape:label=""
       inkscape:color="rgb(0,134,229)" />
  </sodipodi:namedview>
  <defs
     id="defs87">
    <style
       id="style85">.cls-1{fill:#e15829;}.cls-2{fill:#888;}</style>
  </defs>
  <title
     id="title89">07_infrastructure protection</title>
  <path
     class="cls-2"
     d="M 3659.0963,2166.205 V 1420.3385 L 3121.5552,1123.8167 V 780.15548 L 2498.0993,434.21337 1867.0402,776.35392 v 349.74378 l -526.8966,290.4392 v 749.6681 l -301.844,162.7067 v 691.8843 l 627.2576,334.5372 314.7694,-168.0288 517.7726,275.9932 517.7727,-276.7535 318.5709,167.2685 627.2576,-334.5372 V 2328.9117 Z M 1943.0713,872.91358 2456.2822,1161.8324 v 532.2184 L 1943.0713,1420.3385 Z M 3012.8307,808.28702 2498.0993,1095.6852 1975.7648,803.72515 2498.0993,520.88898 Z m 32.6934,69.18842 v 546.66476 l -513.2108,273.7124 v -532.2188 z m -1379.9669,1769.24686 -518.5329,-291.9598 518.5329,-282.8362 518.5331,285.8774 z m 551.2265,-219.7303 v 546.6646 l -513.2109,273.7125 v -532.2187 z m -1102.4529,0 513.2109,288.9187 v 532.2184 l -513.2109,-274.4725 z m 1383.7685,949.6303 -438.7003,-233.4158 231.8952,-123.9311 v -690.3637 l -627.2575,-345.9419 -247.8619,138.3767 v -662.2322 l 450.8654,-246.3411 v 255.465 l 631.0591,334.5374 627.2575,-334.5375 v -256.9855 l 461.5097,253.9444 v 659.1908 l -252.4236,-139.1372 -631.0592,343.6612 v 691.8842 l 233.4159,124.6913 z m 793.0057,-129.2532 -513.2106,-273.7125 v -549.7057 l 513.2106,288.9186 z m -478.9967,-892.6066 522.3346,-282.8362 518.5329,285.8774 -518.533,288.9186 z m 1069.7594,618.8941 -513.2108,273.7125 v -532.2187 l 513.2108,-285.8775 z"
     id="path117"
     style="fill:#424242;fill-opacity:1;stroke:#424242;stroke-width:50;stroke-linejoin:bevel;stroke-dasharray:none;stroke-dashoffset:0;stroke-opacity:1;paint-order:markers stroke fill;stroke-linecap:round" />
  <metadata
     id="metadata843">
    <rdf:RDF>
      <cc:Work
         rdf:about="">
        <dc:title>07_infrastructure protection</dc:title>
      </cc:Work>
    </rdf:RDF>
  </metadata>
  <text
     xml:space="preserve"
     style="font-style:normal;font-variant:normal;font-weight:normal;font-stretch:normal;font-size:938.762px;font-family:Oswald;-inkscape-font-specification:'Oswald, Normal';font-variant-ligatures:normal;font-variant-caps:normal;font-variant-numeric:normal;font-variant-east-asian:normal;fill:#e31c60;fill-opacity:1;stroke:#424242;stroke-width:0;stroke-linejoin:round;paint-order:markers stroke fill"
     x="963.71936"
     y="4500.4648"
     id="text3703"><tspan
       sodipodi:role="line"
       id="tspan3701"
       x="963.71936"
       y="4500.4648"
       style="fill:#e31c60;fill-opacity:1;stroke-width:0">cuborosa</tspan></text>
</svg>
